<?xml version="1.0" standalone="no"?>
<!DOCTYPE svg PUBLIC "-//W3C//DTD SVG 20010904//EN"
 "http://www.w3.org/TR/2001/REC-SVG-20010904/DTD/svg10.dtd">
<svg version="1.0" xmlns="http://www.w3.org/2000/svg"
 width="1545.000000pt" height="1313.000000pt" viewBox="0 0 1545.000000 1313.000000"
 preserveAspectRatio="xMidYMid meet">
<metadata>
Created by potrace 1.16, written by Peter Selinger 2001-2019
</metadata>
<g transform="translate(0.000000,1313.000000) scale(0.100000,-0.100000)"
fill="#000000" stroke="none">
<path d="M0 6565 l0 -6565 7725 0 7725 0 0 6565 0 6565 -7725 0 -7725 0 0
-6565z m9226 3262 c1108 -563 1466 -745 2475 -1256 294 -149 543 -277 551
-284 14 -11 4 -33 -89 -187 -580 -970 -1193 -1836 -1892 -2675 -140 -168 -304
-360 -334 -390 -20 -20 -20 -20 -1 5 10 14 89 113 175 220 663 830 1270 1736
1814 2708 68 122 104 197 98 203 -5 5 -376 200 -824 433 -448 233 -1313 683
-1923 1000 -610 317 -1113 573 -1117 569 -4 -4 -51 -89 -105 -188 -179 -333
-395 -704 -602 -1030 -167 -263 -496 -752 -525 -780 -12 -11 -12 -12 111 186
123 199 317 532 447 769 175 320 499 979 600 1223 8 20 19 37 24 37 4 0 507
-253 1117 -563z m1374 -1478 c-709 -362 -872 -447 -863 -451 4 -3 171 -45 371
-93 199 -49 362 -91 362 -94 0 -5 -443 -128 -2348 -651 -255 -70 -460 -124
-455 -120 4 4 273 162 596 350 324 188 587 343 585 345 -2 1 -180 72 -396 156
-217 84 -388 155 -380 158 24 8 2883 599 2903 600 11 0 -158 -90 -375 -200z
m-3340 -1790 l349 -281 -97 -116 c-201 -244 -532 -622 -544 -622 -5 0 -561
492 -631 560 -18 16 -11 26 161 233 99 118 231 281 293 361 63 80 115 146 117
146 1 0 160 -126 352 -281z m-1110 -1871 c-155 -149 -540 -504 -568 -524 -17
-12 -41 12 -291 292 l-272 304 333 329 333 330 300 -300 300 -301 -135 -130z
m1043 -776 l298 -298 -118 -105 c-275 -244 -686 -589 -702 -589 -4 0 -95 98
-202 217 -107 120 -229 257 -271 304 l-78 87 208 180 c114 99 286 252 382 340
96 89 177 162 180 162 3 0 139 -134 303 -298z m-1346 -83 c142 -159 259 -293
261 -297 5 -14 -776 -642 -798 -642 -4 0 -118 140 -254 311 l-247 311 28 21
c99 78 386 316 542 449 144 124 187 156 197 147 8 -6 130 -141 271 -300z"/>
</g>
</svg>
