<svg id="etB3NYjpKC11" xmlns="http://www.w3.org/2000/svg" xmlns:xlink="http://www.w3.org/1999/xlink" viewBox="0 0 750 471" shape-rendering="geometricPrecision" text-rendering="geometricPrecision" width="750" height="471"><g><line x1="35.3" y1="10.4" x2="36.7" y2="11" class="svg-elem-1"></line></g><g style="isolation:isolate" opacity="0.81"><g style="isolation:isolate"><g><path d="M40,0h670c22.1,0,40,17.9,40,40v391c0,22.1-17.9,40-40,40h-670c-22.1,0-40-17.9-40-40L0,40C0,17.9,17.9,0,40,0Z" fill="#ca7e0e" class="svg-elem-2"></path></g></g><rect width="750" height="78" rx="0" ry="0" transform="translate(0 61.6)" class="svg-elem-3"></rect><g><path d="M701.1,249.1h-652.2c-3.3,0-6-2.7-6-6v-52.5c0-3.3,2.7-6,6-6h652.1c3.3,0,6,2.7,6,6v52.5c.1,3.3-2.6,6-5.9,6Z" class="svg-elem-4"></path><path d="M701.1,184.6h-83.1-8-10v64.5h10h8h83.1c3.3,0,6-2.7,6-6v-52.5c0-3.3-2.7-6-6-6Z" fill="#605c5c" class="svg-elem-5"></path><rect width="664.1" height="10.5" rx="0" ry="0" transform="translate(42.9 224.5)" fill="#474646" class="svg-elem-6"></rect><rect width="664.1" height="10.5" rx="0" ry="0" transform="translate(42.9 198.6)" fill="#474646" class="svg-elem-7"></rect></g><text dx="0" dy="0" font-family="&quot;Times New Roman&quot;" font-size="16" font-weight="400" transform="translate(621.999 227.273)" fill="#e6d9d9"><tspan y="0" font-weight="400">
985
</tspan></text><g><text dx="0" dy="0" font-family="&quot;Times New Roman&quot;" font-size="16" font-weight="400" transform="translate(518.083 280.088)">
security code
</text></g><rect width="375.5" height="13.5" rx="0" ry="0" transform="translate(58.1 378.6)" class="svg-elem-8"></rect><rect width="421.7" height="13.5" rx="0" ry="0" transform="translate(58.1 405.6)" class="svg-elem-9"></rect><text dx="0" dy="0" font-family="&quot;Times New Roman&quot;" font-size="16" font-weight="400" transform="translate(59.5073 228.61)" fill="#f8f5f5"><tspan y="0" font-weight="400">
John Doe
</tspan></text></g></svg>

