<svg id="e6wrdjWV9Uv1" xmlns="http://www.w3.org/2000/svg" xmlns:xlink="http://www.w3.org/1999/xlink" viewBox="0 0 750 471" shape-rendering="geometricPrecision" text-rendering="geometricPrecision"><g><g><g><g><path d="M40,0h670c22.1,0,40,17.9,40,40v391c0,22.1-17.9,40-40,40h-670c-22.1,0-40-17.9-40-40L0,40C0,17.9,17.9,0,40,0Z" fill="#ca7e0e"/></g></g><path d="M750,431v-237.8C532.4,135.7,193.6,179.7,0,218.1L0,431c0,22.1,17.9,40,40,40h670c22.1,0,40-17.9,40-40Z" fill="#7e4f0b"/></g><text dx="0" dy="0" font-family="&quot;Times New Roman&quot;" font-size="16" font-weight="400" transform="translate(60.106 295.012)"><tspan font-family="&quot;Times New Roman&quot;" font-size="16" font-weight="400" font-style="normal" transform="translate(60.106 295.012)"><![CDATA[
0123 4567 8910 1112
]]></tspan></text><text dx="0" dy="0" font-family="&quot;Times New Roman&quot;" font-size="16" font-weight="400" transform="translate(54.1064 428.172)"><tspan font-family="&quot;Times New Roman&quot;" font-size="16" font-weight="400" font-style="normal" transform="translate(54.1064 428.172)"><![CDATA[
JOHN DOE
]]></tspan></text><text dx="0" dy="0" font-family="&quot;Times New Roman&quot;" font-size="16" font-weight="400" transform="translate(54.1074 389.879)"><tspan font-family="&quot;Times New Roman&quot;" font-size="16" font-weight="400" font-style="normal" transform="translate(54.1074 389.879)"><![CDATA[
cardholder name
]]></tspan></text><text dx="0" dy="0" font-family="&quot;Times New Roman&quot;" font-size="16" font-weight="400" transform="translate(479.775 388.879)"><tspan font-family="&quot;Times New Roman&quot;" font-size="16" font-weight="400" font-style="normal" transform="translate(479.775 388.879)"><![CDATA[
expiration
]]></tspan></text><text dx="0" dy="0" font-family="&quot;Times New Roman&quot;" font-size="16" font-weight="400" transform="translate(65.1054 241.5)"><tspan font-family="&quot;Times New Roman&quot;" font-size="16" font-weight="400" font-style="normal" transform="translate(65.1054 241.5)"><![CDATA[
card number
]]></tspan></text><g transform="translate(1.640228 0)"><text dx="0" dy="0" font-family="&quot;Times New Roman&quot;" font-size="16" font-weight="400" transform="translate(574.422 433.81)"><tspan font-family="&quot;Times New Roman&quot;" font-size="16" font-weight="400" font-style="normal" transform="translate(574.422 433.81)"><![CDATA[
01/23
]]></tspan></text><text dx="0" dy="0" font-family="&quot;Times New Roman&quot;" font-size="16" font-weight="400" transform="translate(479.385 417.01)"><tspan font-family="&quot;Times New Roman&quot;" font-size="16" font-weight="400" font-style="normal" transform="translate(479.385 417.01)"><![CDATA[
VALID
]]></tspan></text><text dx="0" dy="0" font-family="&quot;Times New Roman&quot;" font-size="16" font-weight="400" transform="translate(479.385 435.676)"><tspan font-family="&quot;Times New Roman&quot;" font-size="16" font-weight="400" font-style="normal" transform="translate(479.385 435.676)"><![CDATA[
THRU
]]></tspan></text><polygon points="554.5,421 540.4,414.2 540.4,427.9"/></g><g><g><path d="M168.1,143.6h-85.2c-10.2,0-18.5-8.3-18.5-18.5v-50.2c0-10.2,8.3-18.5,18.5-18.5h85.3c10.2,0,18.5,8.3,18.5,18.5v50.2c-.1,10.2-8.4,18.5-18.6,18.5Z" fill="#d6c8c8"/></g><g><g><rect width="1.5" height="60" rx="0" ry="0" transform="translate(82 70)"/></g>
<g></g>
<g><rect width="1.5" height="60" rx="0" ry="0" transform="translate(167.4 70)"/></g><g><path d="M125.5,130.8c-10.2,0-18.5-8.3-18.5-18.5c0-4.6,1.7-8.9,4.7-12.3-3-3.4-4.7-7.7-4.7-12.3c0-10.2,8.3-18.5,18.5-18.5s18.5,8.3,18.5,18.5c0,4.6-1.7,8.9-4.7,12.3c3,3.4,4.7,7.7,4.7,12.3-.1,10.2-8.3,18.5-18.5,18.5Zm0-60c-9.3,0-16.9,7.6-16.9,16.9c0,4.4,1.7,8.6,4.8,11.8l.5.5-.5.5c-3.1,3.2-4.8,7.4-4.8,11.8c0,9.3,7.6,16.9,16.9,16.9s16.9-7.6,16.9-16.9c0-4.4-1.7-8.6-4.8-11.8l-.5-.5.5-.5c3.1-3.2,4.8-7.4,4.8-11.8c0-9.3-7.6-16.9-16.9-16.9Z"/></g><g><rect width="25.8" height="1.5" rx="0" ry="0" transform="translate(82.8 82.1)"/></g><g><rect width="26.1" height="1.5" rx="0" ry="0" transform="translate(82.8 117.9)"/></g><g><rect width="25.8" height="1.5" rx="0" ry="0" transform="translate(142.4 82.1)"/></g><g><rect width="26.2" height="1.5" rx="0" ry="0" transform="translate(142 117.9)"/></g></g></g></g></svg>
